<?xml version="1.0" standalone="no"?>
<!DOCTYPE svg PUBLIC "-//W3C//DTD SVG 20010904//EN"
 "http://www.w3.org/TR/2001/REC-SVG-20010904/DTD/svg10.dtd">
<svg version="1.0" xmlns="http://www.w3.org/2000/svg"
 width="1600.000000pt" height="1600.000000pt" viewBox="0 0 1600.000000 1600.000000"
 preserveAspectRatio="xMidYMid meet">

<g transform="translate(0.000000,1600.000000) scale(0.100000,-0.100000)"
fill="#000000" stroke="none">
<path d="M1933 13711 c3 -15 0 -21 -10 -21 -23 0 -100 -66 -130 -111 -15 -22
-34 -39 -44 -39 -19 0 -19 -138 -19 -5525 0 -5255 1 -5525 18 -5525 9 0 27
-18 40 -40 13 -24 38 -48 58 -57 24 -12 34 -23 34 -40 l0 -23 1095 0 1095 0 0
24 c0 20 8 27 49 41 52 17 84 45 100 87 7 18 9 1423 7 4354 -2 2385 0 4338 4
4350 5 13 18 28 29 33 13 8 633 11 2008 11 1093 -1 2222 0 2508 1 1586 7 1802
4 1905 -28 36 -12 101 -26 145 -32 136 -19 145 -21 163 -40 9 -10 42 -26 73
-35 31 -9 62 -23 69 -31 7 -8 16 -15 20 -15 9 0 92 -56 156 -105 45 -34 138
-129 162 -165 9 -14 22 -29 29 -33 19 -12 123 -231 123 -258 0 -13 9 -39 20
-57 35 -58 49 -113 55 -227 4 -60 10 -137 14 -170 3 -33 6 -373 5 -755 0 -392
3 -700 8 -707 5 -6 5 -14 0 -17 -5 -3 -7 -91 -5 -198 2 -106 3 -209 1 -228 -1
-19 -1 -141 0 -270 0 -129 1 -278 1 -330 0 -52 0 -104 0 -115 1 -11 0 -56 -1
-100 0 -44 -1 -102 0 -130 1 -86 0 -165 -2 -333 -1 -90 2 -166 6 -168 4 -3 5
-35 1 -72 -4 -37 -6 -77 -4 -89 3 -30 3 -61 1 -423 0 -168 -1 -361 -1 -430 0
-69 -2 -810 -5 -1646 l-6 -1522 69 -54 c37 -30 78 -60 91 -67 12 -6 22 -21 22
-31 0 -19 8 -20 160 -20 100 0 160 4 160 10 0 5 15 9 34 7 19 -1 32 -5 29 -9
-2 -5 340 -8 760 -8 l764 0 10 23 c8 18 20 24 47 25 41 2 48 -14 11 -28 -14
-5 -25 -12 -25 -15 0 -3 39 -5 86 -5 83 0 85 1 82 23 -3 18 4 24 42 35 73 21
114 45 130 77 13 27 15 464 15 3875 0 2115 -3 3985 -6 4155 -6 289 -9 320 -37
465 -16 85 -35 201 -41 257 -6 60 -21 129 -36 169 -14 38 -30 97 -35 131 -5
35 -22 91 -38 126 -16 34 -33 82 -36 107 -4 25 -20 68 -36 97 -17 29 -35 74
-40 100 -22 95 -127 286 -295 535 -74 111 -120 164 -275 319 -149 151 -205
200 -290 255 -58 37 -122 82 -143 98 -55 44 -132 85 -433 232 -39 19 -101 41
-138 49 -38 8 -87 26 -110 39 -25 14 -78 31 -129 40 -48 8 -108 24 -134 36
-26 11 -79 25 -118 31 -38 6 -115 19 -170 30 -55 11 -136 26 -180 34 -220 38
-389 39 -5005 45 -3978 4 -4485 7 -4485 20 0 9 -11 16 -29 18 -25 3 -28 1 -23
-17z"/>
</g>
</svg>
